<svg xmlns="http://www.w3.org/2000/svg" width="155" height="155" viewBox="0 0 155 155">
    <g transform="translate(-1395 -2722.445)">
        <rect data-name="Rectangle 1817" width="155" height="155" rx="35" transform="translate(1395 2722.445)" style="fill:#ff7a4f"/>
        <g data-name="Group 1334">
            <path data-name="Path 3616" d="M52.78 76.852c-2.588-11.14 0-20.591 4.388-25.88 4.613-5.4 9.677-9.452 13.615-14.853l-4.051 13.5c-5.514 2.926-10.464 6.864-12.49 15.865-.9 3.826-.563 7.876-.675 11.59.45-11.59 5.4-19.466 11.027-22.617 5.739-3.263 11.59-4.951 16.766-8.439l-7.538 11.255c-5.626.45-10.915 2.363-14.965 9.564-1.8 3.263-2.7 7.089-3.826 10.577 3.6-10.689 10.239-15.978 16.428-16.541 6.3-.563 12.265.338 18.116-.788L69.546 74.939 98.126 56.6l-.225.113 1.35-1.013c6.751-5.4 8.1-16.991 6.189-24.3a49.194 49.194 0 0 0-.675-2.138L89.237 48.046l15.528-13.953a28.17 28.17 0 0 1-2.588 11.927c-6.864 13.5-17.553 10.689-27.343 11.252l13.5-18.228-.113.113c.338-.45.675-1.013 1.013-1.463 4.838-7.989 3.038-19.466-.788-25.542a6.555 6.555 0 0 0-1.238-1.688l-9.452 24.3 10.8-19.691a27.678 27.678 0 0 1 .788 12.265c-2.7 15.078-12.827 17.328-21.717 21.717l7.876-22.5-.113.225c.225-.563.338-1.125.563-1.8 2.475-9.564-2.25-19.579-7.426-23.854A13.652 13.652 0 0 0 66.958 0L64.37 26.78l5.063-23.067a26.842 26.842 0 0 1 4.051 11.252C75.847 40.733 49.067 41.07 50.3 65.487c.23 4.051 1.58 7.764 2.48 11.365z" transform="translate(1422.889 2760.861)" style="fill:#fff"/>
            <path data-name="Path 3617" d="M55.811 65.6c1.238-24.53-25.542-24.755-23.179-50.522a26.842 26.842 0 0 1 4.051-11.252l5.063 23.067L39.158 0a13.652 13.652 0 0 0-1.575 1.125c-5.176 4.276-9.9 14.29-7.426 23.854a8.431 8.431 0 0 0 .563 1.8l-.113-.225 7.876 22.5c-8.889-4.388-18.9-6.639-21.717-21.717a29.433 29.433 0 0 1 .788-12.265l10.8 19.691L18.9 10.464a10.951 10.951 0 0 0-1.238 1.688c-3.826 6.189-5.626 17.553-.788 25.542a16.459 16.459 0 0 0 1.013 1.463l-.113-.113 13.5 18.228c-9.789-.563-20.479 2.25-27.343-11.252a27.812 27.812 0 0 1-2.58-11.926l15.528 13.952L1.463 29.255c-.225.675-.45 1.35-.675 2.138C-1.125 38.707.226 50.3 6.977 55.7l1.35 1.013L8.1 56.6l28.58 18.341L16.654 60.2c5.851 1.125 11.815.225 18 .788s12.831 5.962 16.431 16.539C49.96 74.039 49.172 70.1 47.26 66.95c-4.051-7.2-9.339-9.114-14.965-9.564l-7.54-11.252c5.176 3.488 11.027 5.176 16.766 8.439 5.626 3.15 10.464 11.027 11.027 22.616-.113-3.713.113-7.764-.675-11.59-2.025-9-6.864-13.052-12.49-15.865l-4.051-13.5c3.938 5.4 9 9.452 13.615 14.853 4.5 5.288 6.976 14.74 4.388 25.88 1.013-3.716 2.365-7.429 2.476-11.367z" transform="translate(1416.595 2760.861)" style="fill:#fff"/>
        </g>
    </g>
</svg>
