<svg xmlns="http://www.w3.org/2000/svg" width="155" height="155" viewBox="0 0 155 155">
    <g transform="translate(-1395 -2721.574)">
        <rect data-name="Rectangle 1817" width="155" height="155" rx="35" transform="translate(1395 2721.574)" style="fill:#707805"/>
        <g data-name="Group 1334">
            <path data-name="Path 3616" d="M52.766 76.421c-2.573-11.077 0-20.476 4.364-25.735 4.588-5.371 9.623-9.4 13.539-14.77L66.64 49.344c-5.483 2.909-10.406 6.825-12.42 15.777-.9 3.8-.559 7.832-.671 11.525C54 65.12 58.92 57.288 64.515 54.155c5.706-3.245 11.525-4.923 16.672-8.392l-7.5 11.189C68.1 57.4 62.836 59.3 58.808 66.463c-1.79 3.245-2.685 7.049-3.8 10.518 3.58-10.63 10.182-15.888 16.336-16.448 6.266-.559 12.2.336 18.014-.783l-19.92 14.769 28.42-18.238-.224.112 1.343-1.007c6.713-5.371 8.056-16.9 6.154-24.168-.224-.783-.448-1.455-.671-2.126L89.019 47.777l15.44-13.877a28.012 28.012 0 0 1-2.574 11.86C95.061 59.19 84.431 56.393 74.7 56.952l13.423-18.126-.112.112c.336-.448.671-1.007 1.007-1.455 4.811-7.944 3.021-19.357-.783-25.4A6.518 6.518 0 0 0 87 10.406l-9.4 24.168 10.747-19.581a27.523 27.523 0 0 1 .783 12.2c-2.685 14.99-12.755 17.228-21.594 21.591l7.832-22.378-.112.224c.224-.559.336-1.119.559-1.79 2.462-9.511-2.238-19.469-7.385-23.721A13.576 13.576 0 0 0 66.864 0l-2.573 26.63 5.035-22.938a26.692 26.692 0 0 1 4.028 11.189C75.7 40.5 49.074 40.84 50.3 65.12c.228 4.028 1.571 7.721 2.466 11.301z" transform="translate(1422.451 2760.644)" style="fill:#fff"/>
            <path data-name="Path 3617" d="M55.5 65.232c1.229-24.392-25.4-24.616-23.051-50.239A26.691 26.691 0 0 1 36.477 3.8l5.035 22.938L38.939 0a13.575 13.575 0 0 0-1.566 1.119c-5.147 4.252-9.846 14.21-7.385 23.721a8.384 8.384 0 0 0 .559 1.79l-.112-.224 7.832 22.378c-8.839-4.364-18.8-6.6-21.595-21.595a29.268 29.268 0 0 1 .783-12.2L28.2 34.574l-9.4-24.168a10.89 10.89 0 0 0-1.231 1.678c-3.8 6.154-5.595 17.455-.783 25.4a16.367 16.367 0 0 0 1.007 1.455l-.112-.112 13.425 18.125c-9.734-.559-20.364 2.238-27.189-11.189A27.656 27.656 0 0 1 1.343 33.9l15.441 13.877L1.455 29.092a47.74 47.74 0 0 0-.671 2.126c-1.9 7.273-.559 18.8 6.154 24.168l1.343 1.007-.224-.112 28.42 18.238L16.56 59.861c5.818 1.119 11.748.224 17.9.783s12.758 5.931 16.34 16.449c-1.119-3.469-1.9-7.385-3.8-10.518-4.028-7.161-9.287-9.063-14.881-9.511l-7.5-11.189c5.147 3.469 10.965 5.147 16.672 8.392 5.595 3.133 10.406 10.965 10.965 22.49-.112-3.692.112-7.72-.671-11.525-2.014-8.951-6.825-12.979-12.42-15.777l-4.031-13.426c3.916 5.371 8.951 9.4 13.539 14.77 4.476 5.259 6.937 14.658 4.364 25.735 1.007-3.693 2.349-7.386 2.463-11.302z" transform="translate(1416.474 2760.644)" style="fill:#fff"/>
        </g>
    </g>
</svg>
